<?xml version="1.0" encoding="utf-8"?>
<!-- Generator: Adobe Illustrator 20.0.0, SVG Export Plug-In . SVG Version: 6.00 Build 0)  -->
<svg version="1.1" id="Layer_1" xmlns="http://www.w3.org/2000/svg" xmlns:xlink="http://www.w3.org/1999/xlink" x="0px" y="0px"
	 viewBox="0 0 25 25" style="enable-background:new 0 0 25 25;" xml:space="preserve">
<style type="text/css">
	.st0{fill:#FFFFFF;}
</style>
<g id="iFsJIN.tif">
	<g>
		<path class="st0" d="M20.3,0.2c0.5,0.2,0.6,0.5,0.6,1c0,1.9,0,3.7,0,5.6c0,0.1,0,0.2,0,0.3c-0.1,0-0.2,0-0.2,0c-0.4,0,0,0-0.4,0
			c-0.2,0-0.2,0-0.2-0.2c0-1.6,0-3.9,0-5.5c0-0.3,0-0.3-0.3-0.3c-4.8,0-13.6,0-18.4,0c-0.3,0-0.3,0-0.3,0.3c0,6.9,0,15.3,0,22.2
			c0,0.3,0,0.3,0.3,0.3c3.6,0,10.3,0,13.9,0c0.3,0,0.3,0,0.3-0.3c0-1,0-2.7,0-3.7c0-0.2,0-0.2,0.2-0.2c1.1,0,3,0,4.1,0
			c0.2,0,0.2,0,0.2-0.2c0-1.4,0-2.8,0-4.1c0-0.1,0-0.1,0-0.2c0.5,0,0.3,0,0.9,0c0,0.1,0,0.1,0,0.2c0,1.6,0,3.2,0,4.7
			c0,0.3-0.1,0.5-0.3,0.7c-0.9,0.8-1.9,1.7-2.8,2.5c-0.4,0.4-0.9,0.8-1.3,1.2c-0.2,0.2-0.4,0.3-0.7,0.3c-4,0-10.5,0-14.5,0
			c-0.5,0-0.9-0.3-0.9-0.9c0-7.2,0-14.4,0-21.6c0-0.3,0-0.7,0-1c0-0.5,0.1-0.9,0.6-1.1C6.6,0.2,14.7,0.2,20.3,0.2z"/>
		<path class="st0" d="M24.8,14.3c-4.5,0-8.9,0-13.3,0c0-2.1,0-4.3,0-6.5c0.1,0,0.1,0,0.2,0c4.3,0,8.6,0,12.9,0c0.2,0,0.2,0,0.2,0.2
			c0,2,0,4,0,6C24.8,14.2,24.8,14.2,24.8,14.3z M16.9,9.1c0,1.4,0,2.7,0,4.1c0.6,0.1,1.2,0.1,1.8,0c0.6-0.1,1.1-0.4,1.4-1
			c0.2-0.4,0.2-0.9,0.2-1.4c-0.1-0.8-0.7-1.5-1.5-1.6C18.2,9,17.6,9,16.9,9.1z M13.4,13.2c0.1,0,0.3,0,0.4,0c0.4,0,0.4,0,0.4-0.4
			c0-0.4,0-0.8,0-1.2c0.5,0,0.9,0,1.3-0.2c0.5-0.2,0.8-0.7,0.7-1.3c0-0.5-0.4-0.9-0.9-1c-0.6-0.1-1.2-0.1-1.8,0
			C13.4,10.4,13.4,11.8,13.4,13.2z M21.8,13.2c0-0.6,0-1.2,0-1.8c0.5,0,1,0,1.5,0c0-0.2,0-0.3,0-0.4c0-0.1,0-0.2-0.2-0.2
			c-0.4,0-0.8,0-1.2,0c-0.1,0-0.1,0-0.2,0c0-0.4,0-0.7,0-1.1c0.1,0,0.2,0,0.2,0c0.4,0,0.8,0,1.2,0c0.1,0,0.2,0,0.2-0.1
			c0-0.2,0-0.3,0-0.5c-0.8,0-1.6,0-2.4,0c0,1.4,0,2.7,0,4.1C21.3,13.2,21.6,13.2,21.8,13.2z"/>
		<path class="st0" d="M17.6,12.6c0-0.1,0-0.1,0-0.1c0-0.9,0-1.8,0-2.6c0-0.1,0-0.2,0.2-0.2c0.5,0,0.9,0,1.3,0.3
			c0.1,0.1,0.3,0.2,0.3,0.4c0.2,0.6,0.2,1.3-0.2,1.8c-0.1,0.1-0.2,0.2-0.3,0.3C18.5,12.6,18.1,12.6,17.6,12.6z"/>
		<path class="st0" d="M14.2,11c0-0.4,0-0.9,0-1.3c0.4-0.1,0.9,0,1.1,0.2c0.1,0.2,0.1,0.6,0,0.8C15.1,11,14.6,11.1,14.2,11z"/>
	</g>
</g>
</svg>
