<?xml version="1.0" encoding="utf-8"?>
<!-- Generator: Adobe Illustrator 20.0.0, SVG Export Plug-In . SVG Version: 6.00 Build 0)  -->
<svg version="1.1" id="Layer_1" xmlns="http://www.w3.org/2000/svg" xmlns:xlink="http://www.w3.org/1999/xlink" x="0px" y="0px"
	 viewBox="0 0 25 25" style="enable-background:new 0 0 25 25;" xml:space="preserve">
<style type="text/css">
	.st0{fill:#FFFFFF;}
</style>
<g id="n5aRfV.tif">
	<g>
		<path class="st0" d="M24.1,8.5c0-0.7,0-1.1,0-1.8c-1.1-0.1-2,0-3.1,0c-1.2,0-2.3,0-3.5,0c-1.2,0-2.3,0-3.5,0c-1.1,0-2.3,0-3.4,0
			c-1.2,0-2.3,0-3.5,0s-2.3,0-3.5,0c-1.1,0-3.6,0-3.6,0l0.6-1c0,0,15.9,0,23.9,0c0.1,0.1,0.3,0.3,0.4,0.5c0,0.9,0,2.1,0,3.2
			c-4.1,2.7-8.2,5.3-12.3,8C8.6,14.8,5,12.4,1,9.9c0,4.5,0,8.6,0,13c0.7,0.1,19.8,0.2,23,0.1c0-3.7,0-5.5,0-9.3c0.2,0,0.6,0,0.8,0
			c0,3.9,0,6,0,9.9c-0.1,0.1-0.3,0.3-0.4,0.4c-7.9,0-15.9,0-23.8,0c-0.1-0.1-0.3-0.3-0.4-0.4c0-4.9,0-10.1,0-15c0.2,0,0.3,0,0.4,0
			c1.2,0.9,2.6,1.8,3.9,2.7c1.1,0.7,7.9,5,7.9,5S20.1,11.1,24.1,8.5z"/>
	</g>
</g>
</svg>
