<svg id="Layer_1" data-name="Layer 1" xmlns="http://www.w3.org/2000/svg" viewBox="0 0 25 25"><defs><style>.cls-1{fill:#fff;}</style></defs><title>Menu Icons</title><g id="myCl1r.tif"><path class="cls-1" d="M4.41,6.05,4.67,4.6c.15-.8.42-1,1.25-.86C7.62,4,9.33,4.23,11,4.5a10.08,10.08,0,0,0,3.35-.27c1.81-.32,3.61-.68,5.42-1a4.36,4.36,0,0,1,.67-.07c.71,0,.83.06,1,.76.12.47.42,2.11.42,2.11L24,6.34c.64.11.87.33.83,1,0,.82-.16,1.64-.28,2.46-.26,1.78-.59,3.56-.78,5.34A7.76,7.76,0,0,0,24,17.46a1.09,1.09,0,0,1-.4,1.28,1.38,1.38,0,0,0-.38.64,5.28,5.28,0,0,0-.19.88c-.16.95-.34,1.07-1.25.93-1.74-.26-3.5-.47-5.23-.78a10.64,10.64,0,0,0-3.78.3c-2.92.52-5.83,1.08-8.74,1.62-.89.16-1.19,0-1.35-.88-.48-2.51-.93-5-1.39-7.53C.94,12,.61,10.15.27,8.27.05,7.08.23,6.81,1.42,6.59Zm19,1.78a6.83,6.83,0,0,0-.93-.29c-.74-.11-1.49-.17-2.23-.28l-13.14-2c-1-.14-1.09,0-1.23,1-.35,2.45-.72,4.9-1.07,7.36-.16,1.14-.3,2.29-.46,3.5a5.27,5.27,0,0,0,.77.25c.74.11,1.49.18,2.23.29l13.26,2c1,.14,1.1,0,1.24-.94.28-1.89.58-3.78.85-5.68C22.93,11.33,23.14,9.65,23.39,7.83ZM1.69,8c.22,1.27,1.39,7.68,1.39,7.68s.86-5.62,1.1-8.07ZM4.14,20.69a42.68,42.68,0,0,0,5.56-1l-6-.91A4.93,4.93,0,0,0,4.14,20.69ZM16.65,5.27l3.71.54-.24-1.17Z"/><path class="cls-1" d="M15.9,10.63c.79,1.3,1.23,2.59,2.06,3.77l1.44-1.32c.43,1.68.66,3.28,1,5L6.09,16A3,3,0,0,1,9,14.27a8.34,8.34,0,0,1,2.32.35,1.33,1.33,0,0,0,1.56-.51C13.86,13,14.86,11.84,15.9,10.63Z"/><path class="cls-1" d="M10,8.34a1.48,1.48,0,0,1,1.53,1.44A1.57,1.57,0,0,1,10,11.34,1.56,1.56,0,0,1,8.51,9.85,1.47,1.47,0,0,1,10,8.34Z"/></g></svg>